<?xml version="1.0" encoding="UTF-8"?>
<svg id="icon" xmlns="http://www.w3.org/2000/svg" width="22" height="22" viewBox="0 0 32 32">
  <defs>
    <style>
      .cls-1 {
        fill: none;
      }
    </style>
  </defs>
  <title>logout</title>
    <g id="Page-1" stroke="none" stroke-width="1" fill="none" fill-rule="evenodd">
  <g stroke="#444444">
    <path d="M6,30H18a2.0023,2.0023,0,0,0,2-2V25H18v3H6V4H18V7h2V4a2.0023,2.0023,0,0,0-2-2H6A2.0023,2.0023,0,0,0,4,4V28A2.0023,2.0023,0,0,0,6,30Z"/>
    <polygon points="20.586 20.586 24.172 17 10 17 10 15 24.172 15 20.586 11.414 22 10 28 16 22 22 20.586 20.586"/>
  </g>
    <rect id="_Transparent_Rectangle_" data-name="&lt;Transparent Rectangle&gt;" class="cls-1" width="32" height="32"/>
  </g>
</svg>
