<?xml version="1.0" encoding="UTF-8"?>
<svg width="246px" height="38px" viewBox="0 0 246 38" version="1.1" xmlns="http://www.w3.org/2000/svg" xmlns:xlink="http://www.w3.org/1999/xlink">
    <!-- Generator: Sketch 57.1 (83088) - https://sketch.com -->
    <title>logo2</title>
    <desc>Created with Sketch.</desc>
    <g id="Page-1" stroke="none" stroke-width="1" fill="none" fill-rule="evenodd">
        <g id="Insurance-Login-Copy" transform="translate(-718.000000, -368.000000)">
            <g id="logo2" transform="translate(718.000000, 368.000000)">
                <path d="M64.58,9.72 L64.58,8.58 L80.99,8.58 L80.99,9.72 L73.43,9.72 L73.43,30 L72.11,30 L72.11,9.72 L64.58,9.72 Z M83.39,18 L83.48,18 C83.6200007,17.4999975 83.8749981,17.0300022 84.245,16.59 C84.6150018,16.1499978 85.0649973,15.7700016 85.595,15.45 C86.1250026,15.1299984 86.7149967,14.8850008 87.365,14.715 C88.0150032,14.5449991 88.6899965,14.4699999 89.39,14.49 L89.39,15.63 C88.789997,15.5499996 88.1050038,15.609999 87.335,15.81 C86.5649961,16.010001 85.8300035,16.4499966 85.13,17.13 C84.8499986,17.4300015 84.605001,17.7199986 84.395,18 C84.1849989,18.2800014 84.0100007,18.5899983 83.87,18.93 C83.7299993,19.2700017 83.6200004,19.6499979 83.54,20.07 C83.4599996,20.4900021 83.4100001,20.9899971 83.39,21.57 L83.39,30 L82.25,30 L82.25,14.58 L83.39,14.58 L83.39,18 Z M102.8,30 L101.66,30 L101.66,26.7 L101.6,26.7 C101.399999,27.2800029 101.115002,27.7949977 100.745,28.245 C100.374998,28.6950022 99.9450024,29.08 99.455,29.4 C98.9649975,29.7200016 98.4300029,29.9599992 97.85,30.12 C97.2699971,30.2800008 96.680003,30.36 96.08,30.36 C95.1799955,30.36 94.4150031,30.2500011 93.785,30.03 C93.1549968,29.8099989 92.640002,29.5200018 92.24,29.16 C91.839998,28.7999982 91.5250011,28.3950022 91.295,27.945 C91.0649988,27.4949977 90.9000005,27.0400023 90.8,26.58 C90.6999995,26.1199977 90.6400001,25.6750021 90.62,25.245 C90.5999999,24.8149978 90.59,24.4400016 90.59,24.12 L90.59,14.58 L91.73,14.58 L91.73,24.33 C91.73,24.730002 91.7599997,25.2149971 91.82,25.785 C91.8800003,26.3550028 92.0549985,26.9049973 92.345,27.435 C92.6350014,27.9650026 93.0699971,28.4199981 93.65,28.8 C94.2300029,29.1800019 95.0499947,29.37 96.11,29.37 C96.9700043,29.37 97.7449965,29.2100016 98.435,28.89 C99.1250034,28.5699984 99.7099976,28.1250028 100.19,27.555 C100.670002,26.9849971 101.034999,26.3050039 101.285,25.515 C101.535001,24.724996 101.66,23.8600047 101.66,22.92 L101.66,14.58 L102.8,14.58 L102.8,30 Z M106.7,24.87 C106.74,25.5900036 106.899999,26.2249972 107.18,26.775 C107.460001,27.3250027 107.824998,27.794998 108.275,28.185 C108.725002,28.5750019 109.249997,28.869999 109.85,29.07 C110.450003,29.270001 111.099996,29.37 111.8,29.37 C112.300002,29.37 112.834997,29.3250004 113.405,29.235 C113.975003,29.1449995 114.504998,28.9800012 114.995,28.74 C115.485002,28.4999988 115.889998,28.1650021 116.21,27.735 C116.530002,27.3049978 116.69,26.7600033 116.69,26.1 C116.69,25.2399957 116.430003,24.5900022 115.91,24.15 C115.389997,23.7099978 114.735004,23.3700012 113.945,23.13 C113.154996,22.8899988 112.305005,22.6950007 111.395,22.545 C110.484995,22.3949992 109.635004,22.1700015 108.845,21.87 C108.054996,21.5699985 107.400003,21.1450027 106.88,20.595 C106.359997,20.0449972 106.1,19.2400053 106.1,18.18 C106.1,17.4199962 106.269998,16.7850025 106.61,16.275 C106.950002,15.7649974 107.384997,15.3600015 107.915,15.06 C108.445003,14.7599985 109.039997,14.5450006 109.7,14.415 C110.360003,14.2849993 111.019997,14.22 111.68,14.22 C112.480004,14.22 113.229996,14.3099991 113.93,14.49 C114.630003,14.6700009 115.234997,14.959998 115.745,15.36 C116.255003,15.760002 116.654999,16.2699969 116.945,16.89 C117.235001,17.5100031 117.38,18.2599956 117.38,19.14 L116.24,19.14 C116.24,18.4399965 116.125001,17.8400025 115.895,17.34 C115.664999,16.8399975 115.345002,16.4350015 114.935,16.125 C114.524998,15.8149984 114.040003,15.5850007 113.48,15.435 C112.919997,15.2849992 112.320003,15.21 111.68,15.21 C111.159997,15.21 110.635003,15.2599995 110.105,15.36 C109.574997,15.4600005 109.100002,15.6299988 108.68,15.87 C108.259998,16.1100012 107.915001,16.4199981 107.645,16.8 C107.374999,17.1800019 107.24,17.6399973 107.24,18.18 C107.24,18.8000031 107.389998,19.2999981 107.69,19.68 C107.990001,20.0600019 108.384998,20.3649988 108.875,20.595 C109.365002,20.8250011 109.914997,21.0099993 110.525,21.15 C111.135003,21.2900007 111.749997,21.4299993 112.37,21.57 C113.130004,21.7100007 113.844997,21.874999 114.515,22.065 C115.185003,22.2550009 115.764998,22.5149983 116.255,22.845 C116.745002,23.1750016 117.129999,23.5999974 117.41,24.12 C117.690001,24.6400026 117.83,25.299996 117.83,26.1 C117.83,26.9400042 117.640002,27.6299973 117.26,28.17 C116.879998,28.7100027 116.400003,29.1449983 115.82,29.475 C115.239997,29.8050016 114.595004,30.0349993 113.885,30.165 C113.174996,30.2950006 112.480003,30.36 111.8,30.36 C110.919996,30.36 110.105004,30.2450011 109.355,30.015 C108.604996,29.7849988 107.950003,29.4350023 107.39,28.965 C106.829997,28.4949976 106.390002,27.9200034 106.07,27.24 C105.749998,26.5599966 105.58,25.7700045 105.56,24.87 L106.7,24.87 Z M126.26,15.57 L122.9,15.57 L122.9,26.34 C122.9,26.9600031 122.969999,27.4499982 123.11,27.81 C123.250001,28.1700018 123.464999,28.444999 123.755,28.635 C124.045001,28.8250009 124.394998,28.9399998 124.805,28.98 C125.215002,29.0200002 125.689997,29.0300001 126.23,29.01 L126.23,30 C125.649997,30.0400002 125.085003,30.0350002 124.535,29.985 C123.984997,29.9349997 123.500002,29.7850012 123.08,29.535 C122.659998,29.2849987 122.325001,28.9100025 122.075,28.41 C121.824999,27.9099975 121.72,27.2200044 121.76,26.34 L121.76,15.57 L118.91,15.57 L118.91,14.58 L121.76,14.58 L121.76,9.78 L122.9,9.78 L122.9,14.58 L126.26,14.58 L126.26,15.57 Z M129.08,8.58 L132.98,8.58 L139.73,26.58 L146.51,8.58 L150.41,8.58 L150.41,30 L147.71,30 L147.71,12.18 L147.65,12.18 L140.96,30 L138.53,30 L131.84,12.18 L131.78,12.18 L131.78,30 L129.08,30 L129.08,8.58 Z M165.5,20.76 C165.46,20.159997 165.325001,19.5900027 165.095,19.05 C164.864999,18.5099973 164.555002,18.0450019 164.165,17.655 C163.774998,17.264998 163.315003,16.9550011 162.785,16.725 C162.254997,16.4949988 161.670003,16.38 161.03,16.38 C160.369997,16.38 159.775003,16.4949988 159.245,16.725 C158.714997,16.9550011 158.260002,17.269998 157.88,17.67 C157.499998,18.070002 157.200001,18.5349973 156.98,19.065 C156.759999,19.5950026 156.63,20.159997 156.59,20.76 L165.5,20.76 Z M167.96,25.08 C167.619998,26.8200087 166.870006,28.13 165.71,29.01 C164.549994,29.8900044 163.090009,30.33 161.33,30.33 C160.089994,30.33 159.015005,30.13 158.105,29.73 C157.194995,29.329998 156.430003,28.7700036 155.81,28.05 C155.189997,27.3299964 154.725002,26.470005 154.415,25.47 C154.104998,24.469995 153.93,23.3800059 153.89,22.2 C153.89,21.0199941 154.069998,19.9400049 154.43,18.96 C154.790002,17.9799951 155.294997,17.13 155.945,16.41 C156.595003,15.6899964 157.364996,15.13 158.255,14.73 C159.145004,14.329998 160.119995,14.13 161.18,14.13 C162.560007,14.13 163.704995,14.4149971 164.615,14.985 C165.525005,15.5550028 166.254997,16.2799956 166.805,17.16 C167.355003,18.0400044 167.734999,18.9999948 167.945,20.04 C168.155001,21.0800052 168.24,22.0699953 168.2,23.01 L156.59,23.01 C156.57,23.6900034 156.649999,24.3349969 156.83,24.945 C157.010001,25.555003 157.299998,26.0949976 157.7,26.565 C158.100002,27.0350023 158.609997,27.4099986 159.23,27.69 C159.850003,27.9700014 160.579996,28.11 161.42,28.11 C162.500005,28.11 163.384997,27.8600025 164.075,27.36 C164.765003,26.8599975 165.219999,26.1000051 165.44,25.08 L167.96,25.08 Z M174.2,22.89 C174.2,23.6100036 174.329999,24.2199975 174.59,24.72 C174.850001,25.2200025 175.194998,25.6249984 175.625,25.935 C176.055002,26.2450015 176.559997,26.4749992 177.14,26.625 C177.720003,26.7750007 178.319997,26.85 178.94,26.85 C179.360002,26.85 179.809998,26.8150003 180.29,26.745 C180.770002,26.6749996 181.219998,26.540001 181.64,26.34 C182.060002,26.139999 182.409999,25.8650017 182.69,25.515 C182.970001,25.1649982 183.11,24.7200027 183.11,24.18 C183.11,23.5999971 182.925002,23.1300018 182.555,22.77 C182.184998,22.4099982 181.700003,22.1100012 181.1,21.87 C180.499997,21.6299988 179.820004,21.4200009 179.06,21.24 C178.299996,21.0599991 177.530004,20.8600011 176.75,20.64 C175.949996,20.439999 175.170004,20.1950014 174.41,19.905 C173.649996,19.6149985 172.970003,19.2400023 172.37,18.78 C171.769997,18.3199977 171.285002,17.7450034 170.915,17.055 C170.544998,16.3649965 170.36,15.5300049 170.36,14.55 C170.36,13.4499945 170.594998,12.495004 171.065,11.685 C171.535002,10.8749959 172.149996,10.2000027 172.91,9.66 C173.670004,9.1199973 174.529995,8.7200013 175.49,8.46 C176.450005,8.1999987 177.409995,8.07 178.37,8.07 C179.490006,8.07 180.564995,8.19499875 181.595,8.445 C182.625005,8.69500125 183.539996,9.0999972 184.34,9.66 C185.140004,10.2200028 185.774998,10.9349956 186.245,11.805 C186.715002,12.6750043 186.95,13.7299938 186.95,14.97 L182.39,14.97 C182.35,14.3299968 182.215001,13.8000021 181.985,13.38 C181.754999,12.9599979 181.450002,12.6300012 181.07,12.39 C180.689998,12.1499988 180.255002,11.9800005 179.765,11.88 C179.274998,11.7799995 178.740003,11.73 178.16,11.73 C177.779998,11.73 177.400002,11.7699996 177.02,11.85 C176.639998,11.9300004 176.295002,12.07 175.985,12.27 C175.674998,12.470001 175.420001,12.7199985 175.22,13.02 C175.019999,13.3200015 174.92,13.6999977 174.92,14.16 C174.92,14.5800021 174.999999,14.9199987 175.16,15.18 C175.320001,15.4400013 175.634998,15.6799989 176.105,15.9 C176.575002,16.1200011 177.224996,16.3399989 178.055,16.56 C178.885004,16.7800011 179.969993,17.0599983 181.31,17.4 C181.710002,17.4800004 182.264996,17.6249989 182.975,17.835 C183.685004,18.045001 184.389996,18.3799977 185.09,18.84 C185.790003,19.3000023 186.394997,19.9149961 186.905,20.685 C187.415003,21.4550038 187.67,22.439994 187.67,23.64 C187.67,24.6200049 187.480002,25.5299958 187.1,26.37 C186.719998,27.2100042 186.155004,27.9349969 185.405,28.545 C184.654996,29.155003 183.725006,29.6299983 182.615,29.97 C181.504994,30.3100017 180.220007,30.48 178.76,30.48 C177.579994,30.48 176.435006,30.3350014 175.325,30.045 C174.214994,29.7549985 173.235004,29.3000031 172.385,28.68 C171.534996,28.0599969 170.860002,27.2700048 170.36,26.31 C169.859997,25.3499952 169.62,24.2100066 169.64,22.89 L174.2,22.89 Z M195.41,14.49 L198.53,14.49 L198.53,17.34 L195.41,17.34 L195.41,25.02 C195.41,25.7400036 195.529999,26.2199988 195.77,26.46 C196.010001,26.7000012 196.489996,26.82 197.21,26.82 C197.450001,26.82 197.679999,26.8100001 197.9,26.79 C198.120001,26.7699999 198.329999,26.7400002 198.53,26.7 L198.53,30 C198.169998,30.0600003 197.770002,30.0999999 197.33,30.12 C196.889998,30.1400001 196.460002,30.15 196.04,30.15 C195.379997,30.15 194.755003,30.1050004 194.165,30.015 C193.574997,29.9249995 193.055002,29.7500013 192.605,29.49 C192.154998,29.2299987 191.800001,28.8600024 191.54,28.38 C191.279999,27.8999976 191.15,27.2700039 191.15,26.49 L191.15,17.34 L188.57,17.34 L188.57,14.49 L191.15,14.49 L191.15,9.84 L195.41,9.84 L195.41,14.49 Z M204.35,22.26 C204.35,22.8800031 204.409999,23.484997 204.53,24.075 C204.650001,24.6650029 204.854999,25.1949976 205.145,25.665 C205.435001,26.1350023 205.819998,26.5099986 206.3,26.79 C206.780002,27.0700014 207.379996,27.21 208.1,27.21 C208.820004,27.21 209.424998,27.0700014 209.915,26.79 C210.405002,26.5099986 210.794999,26.1350023 211.085,25.665 C211.375001,25.1949976 211.579999,24.6650029 211.7,24.075 C211.820001,23.484997 211.88,22.8800031 211.88,22.26 C211.88,21.6399969 211.820001,21.030003 211.7,20.43 C211.579999,19.829997 211.375001,19.3000023 211.085,18.84 C210.794999,18.3799977 210.405002,18.0050014 209.915,17.715 C209.424998,17.4249985 208.820004,17.28 208.1,17.28 C207.379996,17.28 206.780002,17.4249985 206.3,17.715 C205.819998,18.0050014 205.435001,18.3799977 205.145,18.84 C204.854999,19.3000023 204.650001,19.829997 204.53,20.43 C204.409999,21.030003 204.35,21.6399969 204.35,22.26 Z M200.09,22.26 C200.09,21.0199938 200.279998,19.895005 200.66,18.885 C201.040002,17.8749949 201.579996,17.0150035 202.28,16.305 C202.980003,15.5949964 203.819995,15.0450019 204.8,14.655 C205.780005,14.264998 206.879994,14.07 208.1,14.07 C209.320006,14.07 210.424995,14.264998 211.415,14.655 C212.405005,15.0450019 213.249996,15.5949964 213.95,16.305 C214.650003,17.0150035 215.189998,17.8749949 215.57,18.885 C215.950002,19.895005 216.14,21.0199938 216.14,22.26 C216.14,23.5000062 215.950002,24.619995 215.57,25.62 C215.189998,26.620005 214.650003,27.4749964 213.95,28.185 C213.249996,28.8950035 212.405005,29.4399981 211.415,29.82 C210.424995,30.2000019 209.320006,30.39 208.1,30.39 C206.879994,30.39 205.780005,30.2000019 204.8,29.82 C203.819995,29.4399981 202.980003,28.8950035 202.28,28.185 C201.579996,27.4749964 201.040002,26.620005 200.66,25.62 C200.279998,24.619995 200.09,23.5000062 200.09,22.26 Z M218.9,14.49 L222.95,14.49 L222.95,17.37 L223.01,17.37 C223.210001,16.8899976 223.479998,16.445002 223.82,16.035 C224.160002,15.6249979 224.549998,15.2750014 224.99,14.985 C225.430002,14.6949985 225.9,14.4700008 226.4,14.31 C226.9,14.1499992 227.419997,14.07 227.96,14.07 C228.240001,14.07 228.549998,14.1199995 228.89,14.22 L228.89,18.18 C228.689999,18.1399998 228.450001,18.1050001 228.17,18.075 C227.889999,18.0449998 227.620001,18.03 227.36,18.03 C226.579996,18.03 225.920003,18.1599987 225.38,18.42 C224.839997,18.6800013 224.405002,19.0349977 224.075,19.485 C223.744998,19.9350022 223.510001,20.459997 223.37,21.06 C223.229999,21.660003 223.16,22.3099965 223.16,23.01 L223.16,30 L218.9,30 L218.9,14.49 Z M241.01,20.58 C240.809999,19.4999946 240.455003,18.6800028 239.945,18.12 C239.434997,17.5599972 238.660005,17.28 237.62,17.28 C236.939997,17.28 236.375002,17.3949988 235.925,17.625 C235.474998,17.8550011 235.115001,18.1399983 234.845,18.48 C234.574999,18.8200017 234.385001,19.1799981 234.275,19.56 C234.164999,19.9400019 234.1,20.28 234.08,20.58 L241.01,20.58 Z M234.08,23.28 C234.14,24.6600069 234.489997,25.6599969 235.13,26.28 C235.770003,26.9000031 236.689994,27.21 237.89,27.21 C238.750004,27.21 239.489997,26.9950021 240.11,26.565 C240.730003,26.1349978 241.109999,25.6800024 241.25,25.2 L245,25.2 C244.399997,27.0600093 243.480006,28.389996 242.24,29.19 C240.999994,29.990004 239.500009,30.39 237.74,30.39 C236.519994,30.39 235.420005,30.1950019 234.44,29.805 C233.459995,29.414998 232.630003,28.8600036 231.95,28.14 C231.269997,27.4199964 230.745002,26.560005 230.375,25.56 C230.004998,24.559995 229.82,23.460006 229.82,22.26 C229.82,21.0999942 230.009998,20.020005 230.39,19.02 C230.770002,18.019995 231.309996,17.1550036 232.01,16.425 C232.710003,15.6949963 233.544995,15.1200021 234.515,14.7 C235.485005,14.2799979 236.559994,14.07 237.74,14.07 C239.060007,14.07 240.209995,14.3249974 241.19,14.835 C242.170005,15.3450025 242.974997,16.0299957 243.605,16.89 C244.235003,17.7500043 244.689999,18.7299945 244.97,19.83 C245.250001,20.9300055 245.35,22.079994 245.27,23.28 L234.08,23.28 Z" id="TrustMeStore" fill="#222222" fill-rule="nonzero"></path>
                <path d="M34.882823,9.66666667 C34.882823,8.74611111 34.1735348,8 33.2984114,8 C32.4232881,8 31.7139998,8.74611111 31.7139998,9.66666667 C31.7139998,11.505 30.1148004,13 28.1490737,13 C26.183347,13 24.5841475,11.505 24.5841475,9.66666667 C24.5841475,8.74611111 23.8748593,8 22.9997359,8 C22.1246126,8 21.4153243,8.74611111 21.4153243,9.66666667 C21.4153243,11.505 19.8161249,13 17.8503982,13 C15.8846715,13 14.2854721,11.505 14.2854721,9.66666667 C14.2854721,8.74611111 13.5761838,8 12.7010604,8 C11.8259371,8 11.1166488,8.74611111 11.1166488,9.66666667 C11.1166488,13.9083333 4.3818432,14.1177778 4,9.95333333 L6.64438298,3 L39.355617,3 L42,9.95333333 C41.6186849,14.1077778 34.882823,13.9272222 34.882823,9.66666667 L34.882823,9.66666667 Z M39,35 L35.8,35 L35.8,20.9221373 C35.8,20.0581736 35.0837333,19.3579303 34.2,19.3579303 L11.8,19.3579303 C10.9162667,19.3579303 10.2,20.0581736 10.2,20.9221373 L10.2,35 L7,35 L7,16.2185669 C9.03466667,16.3160691 11.2,15.5271874 12.6,14 C13.8485333,15.3624243 15.7162667,16.2295163 17.8,16.2295163 C19.8837333,16.2295163 21.7514667,15.3624243 23,14 C24.2485333,15.3624243 26.1162667,16.2295163 28.2,16.2295163 C30.2837333,16.2295163 32.1514667,15.3624243 33.4,14 C34.7973333,15.5251018 36.9616,16.3186761 39,16.2185669 L39,35 Z M13,35 L33,35 L33,22 L13,22 L13,35 Z M41.6710714,0.994861111 C41.42625,0.39425 40.8353571,0 40.1785714,0 L4.82142857,0 C4.16464286,0 3.57375,0.39425 3.32892857,0.994861111 L0.114642857,8.91152778 C0.0391071429,9.09888889 0,9.29838889 0,9.5 C0,11.7578333 1.29107143,13.7296111 3.21428571,14.8511389 L3.21428571,36.4166667 C3.21428571,37.2911944 3.93375,38 4.82142857,38 L40.1785714,38 C41.06625,38 41.7857143,37.2911944 41.7857143,36.4166667 L41.7857143,14.8511389 C43.7089286,13.7296111 45,11.7578333 45,9.5 C45,9.29838889 44.9608929,9.09888889 44.8853571,8.91152778 L41.6710714,0.994861111 Z" id="Fill-1-Copy" fill="#5AAAFA"></path>
            </g>
        </g>
    </g>
</svg>